<?xml version="1.0" encoding="UTF-8" standalone="no"?>
<!DOCTYPE svg PUBLIC "-//W3C//DTD SVG 1.1//EN"
 "http://www.w3.org/Graphics/SVG/1.1/DTD/svg11.dtd">
<!-- Generated by graphviz version 2.40.1 (20161225.0304)
 -->
<!-- Title: dependencies Pages: 1 -->
<svg width="1504pt" height="284pt"
 viewBox="0.00 0.00 1504.00 284.00" xmlns="http://www.w3.org/2000/svg" xmlns:xlink="http://www.w3.org/1999/xlink">
<g id="graph0" class="graph" transform="scale(1 1) rotate(0) translate(4 280)">
<title>dependencies</title>
<polygon fill="#ffffff" stroke="transparent" points="-4,4 -4,-280 1500,-280 1500,4 -4,4"/>
<text text-anchor="start" x="727.0091" y="-42.4" font-family="sans-serif" font-weight="bold" font-size="14.00" fill="#000000">Legend</text>
<polygon fill="#ffffb3" stroke="transparent" points="514,-10 514,-30 534,-30 534,-10 514,-10"/>
<text text-anchor="start" x="537.629" y="-15.4" font-family="sans-serif" font-size="14.00" fill="#000000"> &#160;Declarations</text>
<polygon fill="#8dd3c7" stroke="transparent" points="627,-10 627,-30 647,-30 647,-10 627,-10"/>
<text text-anchor="start" x="650.7251" y="-15.4" font-family="sans-serif" font-size="14.00" fill="#000000"> &#160;Module</text>
<polygon fill="#80b1d3" stroke="transparent" points="713,-10 713,-30 733,-30 733,-10 713,-10"/>
<text text-anchor="start" x="736.7812" y="-15.4" font-family="sans-serif" font-size="14.00" fill="#000000"> &#160;Bootstrap</text>
<polygon fill="#fdb462" stroke="transparent" points="810,-10 810,-30 830,-30 830,-10 810,-10"/>
<text text-anchor="start" x="833.6732" y="-15.4" font-family="sans-serif" font-size="14.00" fill="#000000"> &#160;Providers</text>
<polygon fill="#fb8072" stroke="transparent" points="906,-10 906,-30 926,-30 926,-10 906,-10"/>
<text text-anchor="start" x="929.7258" y="-15.4" font-family="sans-serif" font-size="14.00" fill="#000000"> &#160;Exports</text>
<g id="clust1" class="cluster">
<title>cluster_AppModule</title>
<polygon fill="none" stroke="#000000" stroke-dasharray="1,5" points="8,-70 8,-268 1488,-268 1488,-70 8,-70"/>
</g>
<g id="clust2" class="cluster">
<title>cluster_AppModule_declarations</title>
<polygon fill="none" stroke="#000000" points="492,-78 492,-130 1480,-130 1480,-78 492,-78"/>
</g>
<g id="clust10" class="cluster">
<title>cluster_AppModule_imports</title>
<polygon fill="none" stroke="#000000" points="340,-78 340,-130 484,-130 484,-78 340,-78"/>
</g>
<g id="clust12" class="cluster">
<title>cluster_AppModule_bootstrap</title>
<polygon fill="none" stroke="#000000" points="741,-208 741,-260 865,-260 865,-208 741,-208"/>
</g>
<g id="clust13" class="cluster">
<title>cluster_AppModule_providers</title>
<polygon fill="none" stroke="#000000" points="16,-78 16,-130 332,-130 332,-78 16,-78"/>
</g>
<!-- AboutusComponent -->
<g id="node1" class="node">
<title>AboutusComponent</title>
<polygon fill="#ffffb3" stroke="#000000" points="1472.2744,-122 1343.7256,-122 1343.7256,-86 1472.2744,-86 1472.2744,-122"/>
<text text-anchor="middle" x="1408" y="-99.8" font-family="Times,serif" font-size="14.00" fill="#000000">AboutusComponent</text>
</g>
<!-- AppModule -->
<g id="node8" class="node">
<title>AppModule</title>
<polygon fill="#8dd3c7" stroke="#000000" points="844.6571,-187 841.6571,-191 820.6571,-191 817.6571,-187 761.3429,-187 761.3429,-151 844.6571,-151 844.6571,-187"/>
<text text-anchor="middle" x="803" y="-164.8" font-family="Times,serif" font-size="14.00" fill="#000000">AppModule</text>
</g>
<!-- AboutusComponent&#45;&gt;AppModule -->
<g id="edge1" class="edge">
<title>AboutusComponent&#45;&gt;AppModule</title>
<path fill="none" stroke="#000000" d="M1408,-122.0109C1408,-144.4852 1408,-180 1408,-180 1408,-180 855.0621,-180 855.0621,-180"/>
<polygon fill="#000000" stroke="#000000" points="855.0621,-176.5001 845.0621,-180 855.0621,-183.5001 855.0621,-176.5001"/>
</g>
<!-- AppComponent -->
<g id="node2" class="node">
<title>AppComponent</title>
<polygon fill="#ffffb3" stroke="#000000" points="1325.9399,-122 1220.0601,-122 1220.0601,-86 1325.9399,-86 1325.9399,-122"/>
<text text-anchor="middle" x="1273" y="-99.8" font-family="Times,serif" font-size="14.00" fill="#000000">AppComponent</text>
</g>
<!-- AppComponent&#45;&gt;AppModule -->
<g id="edge2" class="edge">
<title>AppComponent&#45;&gt;AppModule</title>
<path fill="none" stroke="#000000" d="M1273,-122.1289C1273,-142.5724 1273,-173 1273,-173 1273,-173 854.7094,-173 854.7094,-173"/>
<polygon fill="#000000" stroke="#000000" points="854.7094,-169.5001 844.7094,-173 854.7093,-176.5001 854.7094,-169.5001"/>
</g>
<!-- BrandComponent -->
<g id="node3" class="node">
<title>BrandComponent</title>
<polygon fill="#ffffb3" stroke="#000000" points="1202.5451,-122 1087.4549,-122 1087.4549,-86 1202.5451,-86 1202.5451,-122"/>
<text text-anchor="middle" x="1145" y="-99.8" font-family="Times,serif" font-size="14.00" fill="#000000">BrandComponent</text>
</g>
<!-- BrandComponent&#45;&gt;AppModule -->
<g id="edge3" class="edge">
<title>BrandComponent&#45;&gt;AppModule</title>
<path fill="none" stroke="#000000" d="M1145,-122.2667C1145,-140.5552 1145,-166 1145,-166 1145,-166 854.9359,-166 854.9359,-166"/>
<polygon fill="#000000" stroke="#000000" points="854.9359,-162.5001 844.9359,-166 854.9359,-169.5001 854.9359,-162.5001"/>
</g>
<!-- FooterComponent -->
<g id="node4" class="node">
<title>FooterComponent</title>
<polygon fill="#ffffb3" stroke="#000000" points="1068.8809,-122 951.1191,-122 951.1191,-86 1068.8809,-86 1068.8809,-122"/>
<text text-anchor="middle" x="1010" y="-99.8" font-family="Times,serif" font-size="14.00" fill="#000000">FooterComponent</text>
</g>
<!-- FooterComponent&#45;&gt;AppModule -->
<g id="edge4" class="edge">
<title>FooterComponent&#45;&gt;AppModule</title>
<path fill="none" stroke="#000000" d="M1010,-122.0091C1010,-138.0494 1010,-159 1010,-159 1010,-159 854.8895,-159 854.8895,-159"/>
<polygon fill="#000000" stroke="#000000" points="854.8896,-155.5001 844.8895,-159 854.8895,-162.5001 854.8896,-155.5001"/>
</g>
<!-- HeaderComponent -->
<g id="node5" class="node">
<title>HeaderComponent</title>
<polygon fill="#ffffb3" stroke="#000000" points="932.7437,-122 811.2563,-122 811.2563,-86 932.7437,-86 932.7437,-122"/>
<text text-anchor="middle" x="872" y="-99.8" font-family="Times,serif" font-size="14.00" fill="#000000">HeaderComponent</text>
</g>
<!-- HeaderComponent&#45;&gt;AppModule -->
<g id="edge5" class="edge">
<title>HeaderComponent&#45;&gt;AppModule</title>
<path fill="none" stroke="#000000" d="M827.9783,-122.1061C827.9783,-122.1061 827.9783,-140.991 827.9783,-140.991"/>
<polygon fill="#000000" stroke="#000000" points="824.4783,-140.9909 827.9783,-150.991 831.4783,-140.991 824.4783,-140.9909"/>
</g>
<!-- HomeComponent -->
<g id="node6" class="node">
<title>HomeComponent</title>
<polygon fill="#ffffb3" stroke="#000000" points="792.5451,-122 677.4549,-122 677.4549,-86 792.5451,-86 792.5451,-122"/>
<text text-anchor="middle" x="735" y="-99.8" font-family="Times,serif" font-size="14.00" fill="#000000">HomeComponent</text>
</g>
<!-- HomeComponent&#45;&gt;AppModule -->
<g id="edge6" class="edge">
<title>HomeComponent&#45;&gt;AppModule</title>
<path fill="none" stroke="#000000" d="M776.972,-122.1061C776.972,-122.1061 776.972,-140.991 776.972,-140.991"/>
<polygon fill="#000000" stroke="#000000" points="773.472,-140.9909 776.972,-150.991 780.472,-140.991 773.472,-140.9909"/>
</g>
<!-- PagenotfoundComponent -->
<g id="node7" class="node">
<title>PagenotfoundComponent</title>
<polygon fill="#ffffb3" stroke="#000000" points="659.5954,-122 500.4046,-122 500.4046,-86 659.5954,-86 659.5954,-122"/>
<text text-anchor="middle" x="580" y="-99.8" font-family="Times,serif" font-size="14.00" fill="#000000">PagenotfoundComponent</text>
</g>
<!-- PagenotfoundComponent&#45;&gt;AppModule -->
<g id="edge7" class="edge">
<title>PagenotfoundComponent&#45;&gt;AppModule</title>
<path fill="none" stroke="#000000" d="M580,-122.0091C580,-138.0494 580,-159 580,-159 580,-159 751.317,-159 751.317,-159"/>
<polygon fill="#000000" stroke="#000000" points="751.317,-162.5001 761.317,-159 751.317,-155.5001 751.317,-162.5001"/>
</g>
<!-- AppComponent  -->
<g id="node10" class="node">
<title>AppComponent </title>
<polygon fill="#80b1d3" stroke="#000000" points="857.439,-252 748.561,-252 748.561,-216 857.439,-216 857.439,-252"/>
<text text-anchor="middle" x="803" y="-229.8" font-family="Times,serif" font-size="14.00" fill="#000000">AppComponent </text>
</g>
<!-- AppModule&#45;&gt;AppComponent  -->
<g id="edge9" class="edge">
<title>AppModule&#45;&gt;AppComponent </title>
<path fill="none" stroke="#000000" stroke-dasharray="1,5" d="M803,-187.1061C803,-187.1061 803,-205.991 803,-205.991"/>
<polygon fill="#000000" stroke="#000000" points="799.5001,-205.9909 803,-215.991 806.5001,-205.991 799.5001,-205.9909"/>
</g>
<!-- AppRoutingModule -->
<g id="node9" class="node">
<title>AppRoutingModule</title>
<polygon fill="#8dd3c7" stroke="#000000" points="476.2744,-122 473.2744,-126 452.2744,-126 449.2744,-122 347.7256,-122 347.7256,-86 476.2744,-86 476.2744,-122"/>
<text text-anchor="middle" x="412" y="-99.8" font-family="Times,serif" font-size="14.00" fill="#000000">AppRoutingModule</text>
</g>
<!-- AppRoutingModule&#45;&gt;AppModule -->
<g id="edge8" class="edge">
<title>AppRoutingModule&#45;&gt;AppModule</title>
<path fill="none" stroke="#000000" d="M412,-122.2667C412,-140.5552 412,-166 412,-166 412,-166 751.1562,-166 751.1562,-166"/>
<polygon fill="#000000" stroke="#000000" points="751.1562,-169.5001 761.1562,-166 751.1561,-162.5001 751.1562,-169.5001"/>
</g>
<!-- ErrorInterceptor -->
<g id="node11" class="node">
<title>ErrorInterceptor</title>
<ellipse fill="#fdb462" stroke="#000000" cx="250" cy="-104" rx="73.5329" ry="18"/>
<text text-anchor="middle" x="250" y="-99.8" font-family="Times,serif" font-size="14.00" fill="#000000">ErrorInterceptor</text>
</g>
<!-- ErrorInterceptor&#45;&gt;AppModule -->
<g id="edge10" class="edge">
<title>ErrorInterceptor&#45;&gt;AppModule</title>
<path fill="none" stroke="#000000" d="M250,-122.1289C250,-142.5724 250,-173 250,-173 250,-173 750.9812,-173 750.9812,-173"/>
<polygon fill="#000000" stroke="#000000" points="750.9813,-176.5001 760.9812,-173 750.9812,-169.5001 750.9813,-176.5001"/>
</g>
<!-- JwtInterceptor -->
<g id="node12" class="node">
<title>JwtInterceptor</title>
<ellipse fill="#fdb462" stroke="#000000" cx="91" cy="-104" rx="66.6094" ry="18"/>
<text text-anchor="middle" x="91" y="-99.8" font-family="Times,serif" font-size="14.00" fill="#000000">JwtInterceptor</text>
</g>
<!-- JwtInterceptor&#45;&gt;AppModule -->
<g id="edge11" class="edge">
<title>JwtInterceptor&#45;&gt;AppModule</title>
<path fill="none" stroke="#000000" d="M91,-122.0109C91,-144.4852 91,-180 91,-180 91,-180 751.1193,-180 751.1193,-180"/>
<polygon fill="#000000" stroke="#000000" points="751.1193,-183.5001 761.1193,-180 751.1193,-176.5001 751.1193,-183.5001"/>
</g>
</g>
</svg>
